<?xml version="1.0" standalone="no"?>
<!DOCTYPE svg PUBLIC "-//W3C//DTD SVG 20010904//EN"
 "http://www.w3.org/TR/2001/REC-SVG-20010904/DTD/svg10.dtd">
<svg version="1.0" xmlns="http://www.w3.org/2000/svg"
 width="400.000000pt" height="400.000000pt" viewBox="0 0 400.000000 400.000000"
 preserveAspectRatio="xMidYMid meet">
<metadata>
Created by potrace 1.14, written by Peter Selinger 2001-2017
</metadata>
<g transform="translate(0.000000,400.000000) scale(0.100000,-0.100000)"
fill="#000000" stroke="none">
<path d="M1760 3985 c0 -8 0 -18 -1 -22 0 -4 4 -9 10 -11 6 -2 11 8 11 22 0
14 -4 26 -10 26 -5 0 -10 -7 -10 -15z"/>
<path d="M1804 3984 c3 -9 6 -18 6 -20 0 -9 22 -3 36 10 21 21 18 26 -17 26
-24 0 -30 -3 -25 -16z"/>
<path d="M1956 3985 c-3 -8 -13 -15 -23 -15 -10 0 -24 -9 -31 -20 -7 -12 -8
-20 -2 -20 5 0 10 -4 10 -10 0 -17 -25 -11 -40 10 -18 25 -30 26 -30 0 0 -12
-5 -17 -14 -14 -14 5 -28 -32 -30 -83 -2 -29 -2 -29 39 4 35 28 62 36 79 25 6
-3 18 -7 26 -7 16 0 25 -65 9 -65 -5 0 -9 9 -9 19 0 10 -7 22 -16 25 -11 4
-14 1 -12 -12 1 -9 -1 -23 -6 -30 -14 -23 2 -59 49 -106 24 -26 44 -54 43 -64
-3 -45 2 -59 25 -58 30 1 34 -33 7 -64 -35 -40 -23 -64 33 -62 28 1 77 -23 77
-37 0 -3 -7 -15 -15 -25 -12 -16 -18 -17 -27 -8 -16 16 -28 15 -28 -3 0 -8 -4
-15 -10 -15 -20 0 -9 -21 15 -30 24 -9 35 -30 15 -30 -5 0 -10 -10 -11 -22 l0
-23 -9 23 c-5 12 -16 22 -23 22 -16 0 -78 56 -70 63 10 11 -8 43 -29 52 -13 6
-24 19 -26 30 -6 40 -41 94 -62 95 -3 0 -12 -13 -21 -29 -16 -27 -16 -31 2
-60 16 -26 17 -35 6 -54 -6 -12 -16 -25 -20 -28 -4 -3 -4 -24 2 -47 5 -23 5
-44 0 -47 -10 -7 -62 5 -69 16 -3 4 -12 4 -20 -1 -13 -8 -13 -11 1 -22 9 -7
19 -20 22 -28 4 -12 6 -11 6 3 1 18 16 23 26 7 7 -12 -33 -53 -45 -45 -11 7
-62 -13 -72 -28 -6 -9 -12 -7 -22 6 -7 9 -19 17 -27 17 -8 0 -6 -5 6 -13 14
-11 15 -16 5 -22 -7 -5 -20 2 -34 17 -11 13 -33 30 -48 38 -16 7 -28 17 -28
22 0 4 -7 8 -15 8 -8 0 -12 -6 -10 -12 7 -19 -32 -61 -50 -54 -8 3 -15 17 -15
31 0 21 4 25 19 20 33 -10 37 16 6 41 -16 13 -26 26 -22 30 4 4 14 -1 22 -12
15 -19 15 -19 30 0 15 19 15 19 15 -1 0 -26 41 -55 61 -43 11 7 5 17 -26 45
-22 19 -46 35 -52 35 -7 0 -13 4 -13 10 0 12 -43 55 -63 63 -8 3 -17 15 -20
26 -4 16 0 21 13 21 11 0 20 -8 22 -20 3 -17 6 -18 28 -7 22 11 26 10 35 -7 6
-11 16 -21 24 -24 10 -3 12 4 6 37 -5 29 -3 41 5 41 7 0 14 -9 17 -20 3 -12
12 -19 22 -18 10 2 15 -4 14 -16 -1 -11 5 -26 13 -34 13 -13 17 -12 35 4 11
10 30 19 42 21 15 2 18 0 9 -5 -17 -11 -12 -102 5 -95 15 6 25 33 12 33 -5 0
-9 17 -8 38 3 47 -5 62 -36 62 -18 0 -23 4 -19 15 4 8 1 15 -5 15 -6 0 -11 -4
-11 -10 0 -19 -28 -10 -44 15 -21 32 -20 33 9 27 32 -6 32 1 0 22 -20 13 -29
14 -52 4 -39 -17 -42 -16 -56 12 -7 14 -19 26 -27 26 -8 1 -22 2 -31 3 -8 0
-23 7 -33 14 -17 13 -17 14 -1 31 16 16 17 19 2 33 -10 10 -31 16 -57 15 -52
-2 -80 15 -80 50 0 19 -5 28 -15 28 -9 0 -18 7 -22 16 -4 11 -13 13 -34 9 -16
-4 -29 -3 -29 2 0 4 -12 16 -26 27 -25 18 -27 18 -60 0 -19 -10 -34 -22 -34
-27 0 -4 -20 -17 -45 -28 -25 -11 -45 -27 -45 -35 0 -9 5 -12 11 -8 9 5 10 -6
7 -40 -4 -36 -1 -52 14 -71 11 -14 26 -25 34 -25 8 0 14 -10 14 -26 0 -24 -1
-24 -22 -10 -28 20 -54 20 -61 2 -4 -9 -14 -13 -29 -9 -18 4 -20 3 -8 -6 8 -6
27 -8 42 -5 22 4 27 2 22 -10 -9 -24 -43 -30 -64 -11 -11 10 -26 15 -36 11
-27 -11 13 -49 43 -41 17 4 25 0 30 -12 10 -29 35 -53 53 -53 10 0 20 -7 24
-15 3 -8 17 -15 30 -15 28 0 76 -19 76 -31 0 -4 -6 -9 -12 -12 -7 -2 -10 -7
-7 -11 3 -4 18 -2 33 4 23 8 33 6 57 -11 24 -17 29 -18 29 -5 0 10 9 16 25 16
25 0 35 -23 15 -35 -7 -4 -7 -13 0 -24 6 -12 5 -22 -2 -29 -6 -6 -8 -22 -4
-35 5 -20 12 -24 36 -23 16 1 36 10 45 21 15 20 15 20 21 -2 5 -19 9 -20 32
-10 20 9 26 9 30 -1 2 -6 9 -12 15 -12 6 0 18 -7 28 -16 26 -24 61 -10 53 22
-7 27 1 31 22 9 15 -15 17 -85 2 -85 -5 0 -8 -8 -6 -17 2 -13 -8 -19 -44 -26
-27 -5 -48 -13 -48 -17 0 -4 -26 -11 -57 -15 -32 -4 -61 -11 -64 -16 -3 -5
-22 -10 -42 -11 -21 -1 -35 -3 -32 -6 2 -2 -10 -14 -28 -26 -20 -14 -34 -33
-38 -54 -4 -18 -13 -41 -22 -50 -8 -9 -17 -26 -19 -37 -2 -11 -9 -20 -16 -20
-7 0 -32 -19 -56 -42 -32 -31 -46 -39 -55 -30 -17 17 -13 37 9 37 27 0 27 39
-1 74 -26 33 -53 33 -95 1 -32 -24 -33 -26 -16 -45 9 -11 24 -20 33 -20 18 0
49 -30 49 -49 0 -6 11 -16 24 -22 19 -9 24 -19 24 -50 1 -32 -3 -39 -19 -39
-14 0 -19 7 -19 25 0 14 -3 25 -7 25 -5 1 -32 3 -61 5 -47 3 -52 1 -47 -15 3
-10 1 -21 -5 -25 -5 -3 -10 -24 -10 -46 0 -51 -25 -49 -26 2 0 43 -20 79 -42
79 -14 0 -15 -2 -2 -10 23 -15 -13 -24 -47 -12 -24 9 -25 11 -6 11 12 1 25 6
29 12 4 7 -4 10 -22 7 -23 -2 -28 1 -26 15 2 9 -3 17 -10 17 -21 1 -51 28 -46
42 10 25 7 33 -12 30 -11 -2 -20 2 -20 7 0 19 -16 12 -30 -14 -7 -14 -19 -25
-27 -25 -17 0 -17 17 0 23 7 4 6 6 -4 6 -9 1 -22 -5 -28 -13 -7 -8 -28 -14
-47 -14 -20 0 -40 -4 -45 -9 -14 -14 26 -45 56 -45 14 0 28 -4 31 -9 3 -5 14
-9 25 -9 16 0 19 5 14 19 -7 22 5 33 23 22 15 -9 4 -51 -14 -51 -8 0 -14 -5
-14 -10 0 -6 -10 -8 -24 -4 -16 4 -25 1 -29 -10 -4 -9 -11 -16 -17 -16 -6 0
-18 -7 -27 -16 -13 -13 -14 -19 -3 -40 8 -13 19 -24 27 -24 7 0 13 -4 13 -9 0
-5 3 -16 6 -25 4 -11 1 -16 -10 -16 -18 0 -22 -25 -6 -35 6 -4 8 -10 5 -15 -6
-10 16 -50 27 -50 5 0 8 9 8 19 0 11 5 23 11 27 8 5 7 9 -4 15 -9 5 -13 17
-10 28 4 16 11 18 41 14 26 -5 33 -3 28 6 -10 15 39 5 72 -15 29 -19 28 -27
-9 -58 -35 -29 -42 -31 -69 -14 -26 17 -38 2 -14 -18 14 -11 16 -17 6 -21 -10
-4 -10 -8 -1 -20 11 -13 1 -14 -77 -11 -78 3 -91 1 -109 -17 -11 -11 -21 -26
-22 -35 -17 -92 -16 -95 16 -123 l32 -27 -43 -42 c-49 -49 -111 -81 -139 -73
-20 7 -79 -20 -79 -35 0 -6 -6 -10 -14 -10 -15 0 -27 -35 -19 -55 2 -8 17 -15
31 -17 18 -2 28 -10 32 -28 7 -29 33 -29 65 0 30 28 75 43 91 30 9 -9 15 -6
24 10 9 17 18 21 38 17 14 -3 34 0 43 6 24 15 33 4 17 -22 -10 -17 -19 -20
-45 -15 -21 4 -33 2 -33 -5 0 -6 11 -11 25 -11 22 0 25 -4 25 -38 0 -21 -5
-43 -11 -49 -8 -8 -5 -17 11 -33 31 -31 23 -56 -18 -52 -18 2 -40 -2 -48 -9
-8 -6 -32 -12 -54 -12 -22 0 -40 -1 -40 -2 0 -1 7 -19 16 -40 20 -48 13 -65
-28 -65 -45 0 -61 -13 -60 -47 0 -20 -10 -41 -34 -67 -40 -44 -45 -91 -9 -91
16 0 19 6 17 28 -2 19 2 27 13 27 8 0 15 -6 15 -14 0 -23 63 12 83 46 17 30
13 47 -16 69 -4 3 14 5 40 5 l48 -1 10 51 c11 54 6 52 72 29 22 -7 39 -38 29
-53 -3 -5 8 -16 25 -26 24 -14 29 -24 29 -54 0 -32 -4 -39 -30 -50 -25 -11
-29 -18 -24 -38 5 -18 2 -24 -10 -24 -9 0 -16 8 -16 18 0 13 -2 14 -9 3 -5 -7
-6 -21 -4 -31 7 -26 -17 -37 -34 -15 -12 18 -13 18 -13 -2 0 -11 -7 -23 -15
-27 -8 -3 -15 -14 -15 -25 0 -18 -3 -19 -25 -11 -20 8 -25 6 -25 -6 0 -11 -5
-12 -17 -6 -10 5 -71 9 -135 8 -65 0 -118 2 -118 7 0 4 -13 7 -30 7 l-30 0 0
-69 c0 -50 4 -70 14 -74 17 -7 40 16 28 28 -4 4 2 6 12 4 11 -2 21 -11 23 -19
4 -13 3 -13 -6 0 -9 13 -11 13 -11 -2 0 -9 -6 -19 -12 -22 -9 -4 -8 -5 2 -5
38 3 50 -2 50 -20 0 -10 6 -21 14 -24 9 -4 12 -14 9 -25 -4 -17 -10 -19 -33
-12 -21 6 -32 4 -41 -6 -7 -8 -20 -12 -30 -9 -15 5 -19 1 -19 -19 0 -30 34
-40 136 -37 50 1 75 -3 83 -12 8 -11 7 -50 -4 -158 -8 -79 -16 -164 -17 -189
l-3 -45 -97 3 c-67 3 -98 0 -98 -7 0 -10 145 -18 205 -11 22 2 37 19 29 32 -3
4 -1 8 3 8 5 0 10 15 11 33 1 17 10 79 18 137 9 58 17 141 19 185 7 147 17
237 31 263 11 22 14 23 20 9 4 -12 18 -17 45 -17 21 0 39 -5 39 -11 0 -5 -4
-7 -10 -4 -15 9 -33 -40 -26 -69 7 -29 43 -39 116 -34 42 3 45 5 51 37 8 40 2
61 -17 61 -8 0 -14 4 -14 10 0 5 20 7 48 3 58 -6 82 11 82 61 0 39 5 45 32 39
16 -5 19 -11 14 -37 -8 -34 -8 -49 -4 -86 2 -19 -2 -26 -19 -28 -12 -2 -25
-12 -28 -22 -3 -10 -13 -21 -22 -24 -14 -6 -14 -9 5 -22 29 -20 28 -32 -5 -36
-22 -2 -29 -9 -31 -30 -3 -22 2 -29 21 -33 17 -5 27 -16 31 -37 3 -16 4 -34 1
-38 -3 -4 4 -10 14 -13 14 -3 21 2 25 19 5 20 9 22 21 12 12 -11 11 -15 -3
-26 -14 -11 -14 -12 4 -12 10 0 26 6 35 13 15 11 15 15 3 32 -16 21 -19 55 -5
55 5 0 11 -9 14 -20 10 -37 38 -38 86 -3 23 17 24 17 17 -5 -8 -24 11 -31 31
-11 9 9 19 6 39 -10 15 -11 37 -21 50 -21 19 0 23 -5 22 -26 -2 -16 -11 -29
-24 -34 -29 -11 -34 -28 -41 -137 -4 -67 -3 -93 5 -93 8 0 12 27 12 83 0 95 7
127 27 127 7 0 25 7 38 16 20 13 28 14 39 5 12 -10 20 -9 40 4 27 18 30 16 38
-30 3 -15 10 -19 31 -17 17 2 27 -2 27 -10 0 -7 9 -2 19 11 27 36 51 22 52
-31 1 -34 2 -38 8 -18 5 17 16 26 37 31 40 8 54 17 54 34 0 8 7 18 16 23 19
10 11 32 -12 32 -24 0 -15 27 11 33 27 5 45 -15 45 -47 0 -14 3 -14 21 -4 31
19 51 -13 47 -75 -2 -26 0 -47 5 -47 21 0 3 -21 -23 -26 -17 -4 -32 -15 -36
-26 -4 -14 -9 -16 -18 -9 -10 8 -16 4 -25 -15 -16 -37 -35 -25 -42 27 -4 31
-7 39 -13 27 -4 -10 -14 -14 -23 -11 -16 6 -67 -40 -56 -51 6 -6 -17 -10 -47
-8 -8 0 -18 -5 -22 -11 -4 -7 -11 -12 -15 -13 -23 -2 -72 -19 -103 -36 -19
-10 -41 -18 -48 -18 -7 0 -11 -4 -8 -9 3 -4 -5 -7 -19 -6 -13 2 -29 -3 -36
-11 -6 -8 -18 -14 -25 -14 -8 0 -14 -5 -14 -11 0 -6 -7 -9 -15 -6 -8 4 -17 2
-20 -4 -4 -5 -11 -7 -16 -4 -5 4 -9 3 -9 -2 0 -4 -14 -14 -30 -21 -17 -8 -28
-18 -25 -23 4 -5 0 -6 -8 -3 -8 3 -21 -1 -29 -9 -8 -8 -24 -18 -36 -21 -12 -4
-22 -12 -22 -17 0 -6 -5 -7 -10 -4 -6 4 -22 0 -35 -9 -13 -9 -31 -16 -40 -16
-17 0 -20 -16 -5 -25 6 -3 10 -13 10 -20 0 -11 -6 -12 -25 -5 -16 6 -25 6 -25
0 0 -13 -37 -13 -45 0 -4 7 -13 7 -26 0 -11 -6 -25 -8 -31 -4 -6 4 -23 8 -37
9 -14 1 -38 5 -52 9 -19 5 -31 3 -43 -10 -11 -10 -21 -13 -24 -8 -4 6 -23 11
-41 12 -19 2 -37 5 -40 8 -4 3 8 5 24 3 17 -2 35 -1 40 2 6 3 30 7 55 8 75 4
58 11 -27 11 -44 0 -83 -3 -87 -8 -4 -4 -24 -7 -44 -7 -60 -1 -162 -16 -162
-25 0 -4 -9 -6 -20 -3 -19 5 -20 0 -20 -166 l0 -172 59 3 c32 2 57 6 54 10 -2
5 1 8 6 8 6 0 11 -4 11 -10 0 -20 21 -9 30 16 11 29 35 28 35 -2 0 -12 7 -19
20 -19 11 0 19 5 18 12 -2 7 10 10 32 8 19 -2 32 1 29 6 -3 5 2 9 11 9 9 0 13
5 10 10 -4 6 12 10 39 10 34 0 46 4 46 15 0 9 6 12 15 9 8 -4 15 -15 15 -25 0
-10 5 -19 11 -19 5 0 7 5 4 10 -7 12 18 40 35 40 8 0 10 -9 7 -22 -4 -15 1
-32 14 -48 l20 -25 -5 25 c-3 14 -3 19 0 13 3 -7 12 -13 20 -13 9 0 12 -5 8
-11 -4 -8 1 -9 17 -4 13 4 28 14 32 21 4 8 14 14 21 14 17 0 40 -26 29 -32 -4
-3 -1 -3 7 0 8 3 27 7 43 10 15 2 27 11 27 19 0 10 6 12 19 8 25 -8 36 11 14
24 -23 12 -13 22 15 14 16 -4 21 -11 17 -24 -4 -12 1 -21 15 -29 14 -7 20 -8
20 0 0 8 6 8 20 0 11 -6 18 -15 15 -21 -4 -5 6 -9 22 -9 22 0 25 2 13 10 -12
8 -11 11 8 16 21 6 23 11 17 45 -6 32 -4 39 9 39 9 0 16 5 16 11 0 16 51 2 76
-22 11 -10 28 -19 37 -19 9 0 17 -6 17 -12 1 -8 6 -6 14 4 12 17 15 17 54 -2
22 -11 44 -24 47 -30 3 -5 19 -10 34 -10 15 0 33 -6 39 -13 19 -18 656 -24
650 -5 -3 7 -15 14 -27 14 -31 2 -39 14 -18 29 10 7 15 19 11 28 -5 14 -8 14
-20 3 -7 -8 -23 -12 -35 -9 -15 4 -17 8 -8 14 8 4 10 11 6 15 -4 4 -2 13 5 21
6 7 8 17 4 20 -4 4 -11 1 -16 -7 -8 -13 -10 -12 -10 3 0 9 -5 17 -12 17 -6 0
-8 3 -5 7 4 3 2 12 -4 19 -13 16 -2 37 15 31 9 -4 11 3 8 19 -3 18 -11 24 -29
24 -21 0 -23 3 -13 14 6 8 21 16 33 18 19 3 20 4 4 20 -21 20 -22 38 -3 38 9
0 12 7 9 20 -6 23 -23 27 -23 5 0 -8 -7 -15 -16 -15 -13 0 -14 3 -5 13 8 10 7
17 -1 25 -9 9 -9 15 -1 23 13 13 77 -23 66 -37 -4 -5 -1 -3 7 5 11 10 12 15 3
18 -7 3 -13 13 -13 24 0 10 -4 19 -10 19 -5 0 -10 4 -10 10 0 5 7 7 16 3 13
-5 15 -2 9 15 -11 38 9 23 27 -18 9 -22 22 -40 30 -39 10 0 10 2 1 6 -22 8
-14 31 11 30 15 0 26 -6 29 -18 5 -19 50 -43 99 -54 16 -3 27 -9 27 -13 -2
-12 13 -52 19 -52 3 0 13 7 23 16 22 20 46 9 28 -12 -9 -11 -9 -14 0 -14 7 0
19 -7 28 -15 8 -8 19 -13 24 -10 5 4 9 1 9 -5 0 -10 15 -8 58 7 8 4 10 0 5
-13 -4 -11 -3 -15 5 -10 6 3 14 2 17 -4 5 -8 11 -7 22 1 9 8 17 9 21 3 4 -6
21 -10 37 -10 17 1 34 -3 38 -9 6 -7 10 -7 13 0 2 6 29 9 63 7 47 -2 68 2 106
23 26 13 51 22 56 19 5 -3 9 1 9 9 0 19 31 31 41 16 4 -7 5 -18 2 -26 -3 -8 2
-13 16 -13 14 0 21 -6 21 -20 0 -11 -7 -20 -15 -20 -10 0 -15 -11 -15 -35 0
-24 -6 -39 -20 -47 -17 -11 -18 -14 -4 -30 9 -9 14 -23 11 -30 -4 -8 -6 -7 -6
5 -1 21 -21 23 -21 1 0 -8 -4 -13 -10 -9 -5 3 -7 -9 -5 -30 3 -19 1 -35 -5
-35 -6 0 -10 -7 -10 -15 0 -11 12 -15 46 -15 44 0 46 1 42 25 -3 14 -1 25 3
25 5 0 9 -4 9 -10 0 -5 7 -10 15 -10 9 0 15 6 13 14 -2 8 2 16 7 18 6 2 11 -7
13 -19 2 -13 9 -23 15 -24 7 0 3 -4 -8 -9 -16 -7 -14 -9 15 -9 58 -1 85 19 85
61 0 20 6 43 13 49 6 7 12 22 12 32 0 21 35 101 110 252 55 110 116 325 92
325 -11 0 -32 -45 -32 -69 0 -10 -7 -34 -15 -52 l-16 -34 4 48 c5 51 1 57 -19
30 -12 -17 -14 -17 -27 1 -10 14 -16 16 -21 7 -4 -6 -2 -18 4 -26 10 -12 9
-15 -4 -15 -9 0 -16 5 -16 10 0 6 -6 5 -14 -2 -8 -7 -12 -17 -9 -21 3 -5 -3
-7 -13 -5 -11 2 -19 10 -20 18 -3 45 -5 51 -15 44 -6 -3 -9 -15 -6 -25 7 -28
-28 -45 -59 -29 -21 12 -26 10 -43 -11 -18 -20 -22 -22 -31 -9 -6 10 -10 11
-10 3 0 -7 -6 -10 -14 -7 -8 3 -17 1 -21 -5 -10 -18 -25 -13 -19 7 4 11 -1 8
-14 -8 -18 -22 -22 -23 -27 -8 -4 9 -12 15 -19 12 -7 -3 -20 4 -30 15 -17 19
-20 19 -49 4 -27 -13 -32 -13 -41 -1 -6 8 -26 18 -44 21 -19 4 -46 16 -62 27
-32 23 -67 28 -37 6 9 -7 17 -18 17 -24 0 -12 -39 -27 -47 -18 -4 3 -1 6 5 6
7 0 12 7 12 15 0 19 -16 19 -24 0 -3 -8 -15 -15 -26 -15 -17 0 -20 4 -15 20 4
11 2 20 -4 20 -6 0 -11 -8 -11 -17 -1 -17 -1 -17 -11 0 -7 13 -18 17 -33 13
-27 -7 -39 2 -56 40 -10 22 -19 30 -29 26 -13 -5 -14 -3 -5 9 16 20 13 49 -4
49 -9 0 -24 7 -34 17 -17 15 -18 15 -19 -3 0 -18 -1 -18 -9 1 -12 29 -12 35 4
35 8 0 17 8 21 17 5 15 4 16 -6 5 -21 -20 -39 -14 -39 13 0 19 -5 25 -20 25
-18 0 -20 4 -14 35 5 31 4 35 -15 35 -27 0 -28 26 -1 33 21 5 37 33 25 45 -3
4 -13 -1 -20 -11 -13 -18 -14 -18 -25 2 -6 12 -7 21 -3 21 4 0 8 17 8 37 0 31
3 37 18 35 22 -4 49 16 41 30 -3 5 -12 7 -19 4 -7 -2 -16 2 -19 10 -9 24 -7
27 10 20 13 -5 15 -2 9 16 -10 30 -10 77 0 107 6 18 5 23 -6 19 -7 -2 -17 -15
-21 -29 -5 -18 -7 -12 -6 21 1 58 -11 110 -28 117 -17 6 -18 35 -3 50 5 5 11
33 11 62 1 28 4 51 7 51 12 0 3 83 -10 91 -11 7 -9 9 7 9 24 0 37 21 28 45 -7
18 -34 20 -35 3 0 -7 -4 -4 -9 7 -5 11 -9 14 -9 8 -1 -7 -10 -13 -22 -13 -20
0 -20 1 -2 30 14 25 15 34 5 50 -17 27 -16 30 13 30 28 0 32 9 13 29 -11 10
-10 11 5 6 19 -8 24 10 5 19 -10 3 -8 9 5 19 13 11 16 22 11 41 -5 20 -2 26 9
26 9 0 20 8 26 18 9 16 10 16 16 0 5 -14 18 -18 49 -17 22 1 31 4 20 6 -14 2
-24 14 -27 29 -5 28 7 32 21 7 6 -10 24 -17 46 -18 33 -2 41 5 37 28 -1 5 12
6 29 2 17 -4 30 -2 30 3 0 12 52 34 71 30 8 -2 15 7 17 20 3 17 8 21 22 17 11
-3 28 -1 39 4 14 8 20 7 25 -4 6 -18 47 -20 64 -3 8 8 18 9 34 1 72 -33 183
-68 205 -64 7 1 17 -8 23 -19 9 -17 8 -20 -10 -20 -11 0 -20 6 -20 13 0 9 -3
8 -9 -2 -5 -7 -15 -11 -22 -9 -8 3 -27 -3 -44 -12 -16 -9 -55 -18 -85 -19
-110 -4 -219 -28 -248 -54 -11 -10 -28 -17 -39 -15 -11 2 -17 -2 -15 -10 2
-10 -7 -11 -35 -7 -28 5 -34 4 -23 -4 10 -7 11 -11 3 -11 -7 0 -13 -7 -13 -16
0 -9 -9 -25 -20 -34 -18 -15 -18 -19 -5 -24 9 -3 25 3 37 14 16 14 25 17 34 9
7 -6 18 -8 24 -4 5 3 13 0 15 -7 6 -16 75 -21 75 -6 0 6 8 8 18 6 10 -3 23 1
30 9 7 7 18 10 24 7 10 -7 26 -9 91 -12 25 -2 27 -5 21 -29 -4 -16 -12 -32
-18 -36 -6 -4 1 -5 17 -1 17 4 27 2 27 -5 0 -6 3 -10 8 -10 19 3 23 -2 12 -16
-9 -10 -9 -15 -1 -15 19 0 12 -16 -11 -28 l-23 -11 24 0 c13 -1 52 19 87 44
59 42 104 57 104 35 0 -5 9 -1 20 10 19 19 30 97 12 86 -11 -7 -24 4 -45 36
-22 35 -22 35 9 42 18 5 23 10 16 19 -14 17 -9 63 6 59 7 -1 11 4 10 10 -2 8
9 14 25 16 15 2 25 8 21 13 -3 5 -10 7 -15 4 -5 -4 -9 -2 -9 4 0 5 4 12 10 16
20 12 -15 65 -39 57 -8 -3 -11 0 -7 6 4 7 -8 13 -31 17 -21 3 -57 10 -81 15
-23 6 -69 10 -103 10 -33 0 -58 4 -55 9 16 25 -55 38 -104 18 -69 -29 -178
-41 -139 -16 11 7 11 9 -1 9 -8 0 -30 -9 -47 -20 -18 -11 -33 -16 -33 -11 0 4
-19 13 -42 18 -24 6 -33 11 -22 12 25 1 49 26 39 41 -8 13 -35 13 -35 -1 0 -7
-9 -9 -23 -6 -28 8 -52 -6 -42 -23 5 -8 3 -11 -6 -8 -28 9 -22 39 10 51 32 12
39 25 20 44 -6 6 -8 24 -5 40 6 26 33 43 93 56 22 5 28 18 13 27 -12 8 -11 10
5 10 17 0 18 2 5 10 -13 9 -13 12 3 24 13 10 15 15 5 19 -7 3 1 8 18 12 30 7
54 45 54 87 0 9 6 18 12 20 7 3 13 13 13 24 0 11 8 20 20 22 48 7 62 12 84 33
17 16 26 18 34 10 15 -15 28 -13 52 5 17 13 18 16 5 24 -10 7 -11 10 -2 10 6
0 20 -8 31 -19 10 -10 24 -15 31 -11 13 8 66 6 124 -5 29 -6 37 -5 31 4 -4 7
-13 10 -21 7 -23 -9 -16 11 16 44 19 19 35 28 43 23 6 -4 22 -6 35 -4 14 1 30
-6 41 -18 10 -11 20 -20 22 -18 2 1 -2 -3 -10 -10 -10 -9 -11 -16 -3 -26 9
-10 8 -17 -1 -28 -6 -7 1 -3 18 11 16 14 25 18 19 10 -6 -8 -12 -31 -12 -51
-1 -29 3 -38 23 -47 21 -10 24 -17 22 -54 -2 -38 0 -43 19 -42 21 0 23 -12 5
-41 -15 -23 -11 -65 8 -84 10 -10 21 -17 24 -15 2 2 4 -3 4 -12 0 -11 -7 -14
-26 -9 -21 5 -24 4 -13 -6 16 -17 15 -29 -3 -29 -8 0 -15 -4 -15 -10 0 -5 7
-10 15 -10 8 0 15 -4 15 -10 0 -14 27 -12 33 3 4 9 6 9 6 0 1 -7 9 -13 18 -13
15 0 14 -2 -3 -15 -13 -11 -14 -14 -4 -13 9 2 14 -4 13 -15 -1 -14 4 -17 18
-14 10 3 21 1 24 -3 3 -4 14 -6 24 -3 13 3 23 -2 30 -16 7 -12 9 -21 5 -21 -3
0 -1 -7 6 -15 11 -14 7 -19 -12 -16 -5 0 -8 -6 -8 -14 0 -8 -7 -15 -16 -15
-12 0 -15 -6 -11 -21 4 -15 2 -19 -9 -15 -8 3 -14 1 -14 -4 0 -6 5 -10 10 -10
6 0 10 -7 10 -15 0 -8 -7 -15 -15 -15 -8 0 -15 -5 -15 -10 0 -6 -8 -20 -19
-31 -25 -27 -33 -73 -19 -107 21 -50 19 -54 -18 -50 -27 3 -34 0 -34 -13 0
-16 -27 -31 -60 -33 -8 -1 -17 -12 -18 -26 -2 -14 -10 -32 -17 -40 -7 -8 -16
-36 -20 -62 -5 -31 -16 -57 -35 -76 -30 -32 -50 -126 -31 -145 6 -6 11 -17 11
-25 0 -17 28 -46 49 -49 8 -1 21 -10 29 -20 7 -10 17 -19 22 -19 6 -1 15 -2
20 -3 15 -2 12 -28 -4 -34 -8 -3 -16 -16 -18 -29 -2 -14 -11 -24 -24 -26 -12
-2 -26 -14 -32 -28 -7 -13 -16 -24 -22 -24 -5 0 -10 -8 -10 -19 0 -17 2 -18
48 -3 26 9 56 24 66 34 10 9 23 15 27 12 9 -5 51 19 83 48 22 20 46 24 46 8 0
-5 12 -13 26 -16 31 -8 14 -23 -26 -25 -14 0 -19 -3 -12 -6 23 -9 12 -20 -20
-21 -18 0 -36 5 -41 11 -7 9 -10 9 -14 0 -2 -7 -10 -13 -16 -13 -7 0 -38 -18
-71 -40 -39 -27 -70 -40 -92 -40 -18 0 -36 -5 -39 -10 -4 -6 -11 -8 -16 -5 -5
4 -9 2 -9 -4 0 -6 -11 -13 -24 -17 -28 -7 -73 -51 -62 -61 4 -4 41 -9 83 -10
41 -1 77 -4 80 -7 3 -2 11 -2 18 0 8 3 20 -6 28 -22 9 -17 17 -23 21 -15 10
16 26 14 26 -4 0 -8 7 -15 16 -15 10 0 14 -6 11 -14 -8 -22 15 -26 37 -7 18
15 19 15 14 -6 -4 -13 -2 -23 4 -23 6 0 8 -11 4 -24 -9 -35 38 -89 71 -83 13
2 26 0 29 -4 3 -5 0 -9 -5 -9 -6 0 -11 -7 -11 -15 0 -13 4 -14 20 -5 14 7 20
21 20 45 0 18 4 36 9 40 5 3 12 19 16 35 4 17 11 30 15 30 5 0 7 -7 4 -15 -13
-33 12 -12 30 25 11 22 23 40 28 40 10 0 11 4 -8 -55 -20 -63 -28 -145 -15
-145 7 0 7 -9 0 -26 -9 -25 -8 -26 7 -13 16 13 16 12 7 -5 -6 -11 -7 -34 -2
-60 5 -22 8 -60 9 -82 0 -50 21 -74 45 -51 17 17 20 31 5 22 -13 -8 -15 37 -9
225 5 165 0 257 -12 240 -13 -17 -15 -25 38 130 30 87 37 123 41 211 2 59 -1
136 -8 175 -6 38 -15 86 -18 106 -4 21 -23 56 -42 79 -40 48 -48 65 -49 96 -1
17 3 21 16 16 14 -5 15 -1 10 24 -6 29 -4 31 28 37 39 8 46 21 15 29 -26 7
-25 27 1 72 30 50 31 150 2 191 -23 33 -46 104 -33 104 5 0 11 -8 13 -18 3
-10 5 -6 6 11 0 15 -4 27 -11 27 -6 0 -4 7 5 18 21 23 21 32 2 32 -8 0 -15 8
-14 18 0 10 3 12 6 5 2 -7 11 -13 19 -13 16 0 18 18 5 39 -8 13 -25 12 -61 -3
-12 -5 -15 3 -17 39 -1 45 -21 78 -44 73 -6 -2 -14 3 -16 10 -3 6 0 12 6 12 6
0 11 8 10 18 0 10 -3 12 -6 5 -6 -16 -43 -17 -43 -2 0 15 -59 100 -87 124 -13
11 -23 28 -23 38 0 10 -8 17 -19 17 -26 0 -39 19 -43 65 -2 27 -8 40 -18 41
-9 0 -10 -1 -2 -3 6 -3 12 -9 12 -14 0 -6 -4 -7 -10 -4 -5 3 -10 -1 -10 -11 0
-13 -3 -14 -15 -4 -46 38 20 78 73 45 15 -10 21 -12 15 -4 -7 7 -13 23 -13 36
0 23 -14 31 -24 15 -8 -13 -67 -1 -73 14 -6 16 36 73 55 73 6 1 12 -7 12 -17
0 -25 11 -34 26 -21 16 13 37 -22 27 -47 -5 -14 -2 -16 20 -12 15 3 27 1 27
-3 0 -5 5 -9 12 -9 6 0 1 11 -12 24 -22 24 -22 26 -5 43 16 16 61 43 71 43 2
0 4 -7 4 -15 0 -8 -4 -15 -10 -15 -19 0 -10 -18 11 -23 12 -3 18 -10 14 -16
-3 -6 -1 -11 4 -11 6 0 11 -7 11 -15 0 -21 18 -19 23 3 3 12 7 7 12 -15 4 -17
14 -34 22 -37 13 -5 13 -9 2 -24 -7 -9 -2 -7 12 6 14 12 27 22 30 22 2 0 4
-19 4 -42 0 -37 3 -43 23 -46 12 -2 22 1 22 7 0 6 -7 11 -15 11 -17 0 -20 16
-6 25 15 9 -16 59 -41 65 -13 4 -25 16 -28 30 -3 14 -18 31 -33 38 -15 7 -27
17 -27 22 0 14 18 21 25 10 3 -5 11 -10 18 -10 6 0 -2 13 -19 28 -17 15 -34
40 -38 55 -5 23 -10 26 -35 21 -34 -7 -54 14 -22 23 12 3 21 9 21 14 0 5 -7 6
-15 3 -8 -4 -15 -1 -15 5 0 6 11 11 25 11 16 0 25 6 25 16 0 10 -6 14 -15 10
-17 -6 -21 9 -5 19 18 11 -1 25 -26 19 -31 -8 -43 19 -20 45 25 28 20 50 -11
48 -19 -1 -30 5 -39 21 -12 24 -31 27 -26 5 2 -7 -2 -13 -8 -13 -5 0 -10 -8
-10 -17 1 -16 2 -16 16 2 13 17 16 18 24 5 5 -8 10 -25 10 -37 0 -17 -4 -20
-21 -16 -14 4 -25 0 -31 -11 -5 -9 -14 -14 -20 -10 -7 4 -7 9 1 13 7 4 7 17 2
36 -7 25 -10 27 -16 13 -8 -21 -59 -25 -52 -5 2 6 11 11 21 9 9 -2 16 1 16 6
0 16 -29 34 -45 28 -8 -3 -15 -1 -15 5 0 15 43 28 62 18 26 -14 35 -10 14 6
-10 7 -15 18 -12 24 4 5 2 12 -3 16 -6 3 -15 -4 -21 -15 -6 -11 -15 -20 -20
-20 -15 0 -12 47 3 53 10 4 10 6 0 6 -7 1 -13 11 -13 24 1 20 2 21 14 5 18
-25 22 -23 20 10 -1 15 -3 37 -3 50 -1 12 -7 22 -16 22 -16 0 -31 43 -20 59 3
6 1 11 -4 11 -6 0 -11 -4 -11 -10 0 -5 -4 -10 -10 -10 -5 0 -10 7 -10 16 0 8
-5 12 -11 8 -6 -3 -8 -17 -5 -30 4 -13 2 -24 -3 -24 -4 0 -11 19 -14 43 -2 23
-8 50 -12 60 -5 12 -2 17 11 17 12 0 5 11 -26 40 -24 22 -45 40 -47 40 -12 0
-61 45 -57 52 10 16 -9 8 -22 -9 -12 -17 -15 -17 -58 -2 -26 9 -49 13 -52 8
-9 -14 -34 -10 -34 5 0 8 -9 21 -19 28 -11 8 -25 26 -32 41 -7 16 -20 27 -31
27 -28 0 -48 24 -48 59 0 22 -5 31 -16 31 -10 0 -14 -6 -11 -15 12 -29 -14
-26 -46 5 -26 25 -38 30 -61 26 -24 -5 -27 -3 -21 12 13 33 10 37 -27 40 -33
3 -38 0 -38 -18 0 -17 4 -20 21 -15 17 6 20 3 17 -12 -5 -28 -42 -27 -73 1
-14 14 -33 22 -41 19 -10 -4 -12 0 -8 11 4 11 0 16 -14 16 -11 0 -22 -7 -26
-15z m238 -74 c26 -11 61 -72 53 -93 -3 -7 -6 -3 -6 8 -1 22 -39 54 -64 54
-22 0 -41 27 -25 33 7 3 14 6 15 6 1 1 13 -3 27 -8z m-117 -73 c-3 -7 -5 -2
-5 12 0 14 2 19 5 13 2 -7 2 -19 0 -25z m68 23 c7 -12 -29 -33 -39 -24 -3 3
-6 12 -6 20 0 15 36 18 45 4z m-97 -36 c21 -20 23 -25 9 -25 -10 0 -17 -8 -17
-20 0 -11 -4 -20 -10 -20 -5 0 -7 7 -4 15 5 11 2 13 -11 8 -15 -5 -17 -2 -12
18 4 13 7 30 7 37 0 18 8 15 38 -13z m113 2 c-10 -9 -11 -8 -5 6 3 10 9 15 12
12 3 -3 0 -11 -7 -18z m186 -44 c-15 -33 -27 -28 -27 12 0 32 2 34 19 23 16
-9 17 -16 8 -35z m-215 -5 c-13 -13 -46 -2 -37 13 4 6 13 8 21 5 8 -3 14 0 15
7 0 8 2 8 6 -1 3 -8 1 -18 -5 -24z m132 -22 c-6 -15 -24 -23 -24 -11 0 8 24
34 28 30 1 -1 0 -10 -4 -19z m-35 -27 c14 -47 11 -55 -18 -39 -15 8 -21 20
-21 45 0 49 24 45 39 -6z m-239 6 c0 -14 -4 -25 -10 -25 -5 0 -10 11 -10 25 0
14 5 25 10 25 6 0 10 -11 10 -25z m-794 -26 c1 -5 2 -20 3 -34 1 -22 4 -24 26
-15 23 9 27 7 36 -17 7 -20 12 -24 18 -14 5 7 22 11 42 9 29 -2 34 -7 37 -30
4 -31 -4 -35 -27 -14 -9 8 -34 16 -56 18 -37 3 -40 1 -37 -19 4 -29 -12 -29
-32 -1 -9 12 -16 18 -16 13 0 -6 -9 1 -20 15 -22 28 -26 60 -8 78 7 7 8 12 3
12 -6 0 -3 4 5 10 15 9 24 5 26 -11z m835 2 c-9 -6 -10 -11 -2 -15 12 -8 6
-26 -9 -26 -17 0 -20 33 -3 45 10 8 20 11 23 9 2 -3 -2 -9 -9 -13z m385 -14
c-5 -20 -1 -23 25 -25 26 -2 30 0 24 18 -4 11 -2 20 4 20 6 0 11 -4 11 -10 0
-5 6 -10 14 -10 15 0 51 -48 42 -57 -13 -13 -37 8 -31 27 5 15 3 18 -8 14 -8
-3 -17 -14 -20 -24 -6 -22 -43 -29 -74 -15 -38 17 -30 80 11 84 4 1 6 -9 2
-22z m-236 3 c0 -5 -2 -10 -4 -10 -3 0 -8 5 -11 10 -3 6 -1 10 4 10 6 0 11 -4
11 -10z m-70 -36 c0 -8 -7 -14 -15 -14 -15 0 -21 21 -9 33 10 9 24 -2 24 -19z
m266 -56 c19 -10 41 -18 49 -18 8 0 15 -5 15 -11 0 -6 6 -9 14 -6 15 6 44 -38
33 -50 -4 -3 -2 -12 5 -20 15 -18 4 -27 -19 -14 -16 8 -22 5 -38 -21 l-18 -31
-24 27 c-21 25 -23 25 -23 6 0 -21 18 -60 34 -71 5 -4 6 -16 3 -28 -3 -12 0
-19 6 -18 6 1 13 -7 15 -17 3 -14 0 -17 -12 -13 -11 5 -16 1 -16 -13 0 -11 -5
-20 -11 -20 -7 0 -9 10 -5 24 5 19 0 32 -19 50 -29 29 -31 41 -9 50 14 5 14 8
-1 22 -9 10 -14 26 -11 36 6 26 -3 48 -19 48 -8 0 -13 13 -12 35 1 28 5 35 21
35 10 0 16 -3 13 -6 -8 -9 11 -44 23 -44 6 0 10 7 10 16 0 8 -4 12 -10 9 -5
-3 -10 3 -10 14 0 20 -9 25 -37 22 -7 -1 -13 5 -13 14 0 9 -13 24 -30 33 -36
21 -38 32 -5 32 16 0 25 -6 25 -15 0 -23 17 -18 25 8 7 19 9 18 12 -13 3 -28
11 -38 39 -52z m-219 50 c-3 -8 -6 -5 -6 6 -1 11 2 17 5 13 3 -3 4 -12 1 -19z
m444 -1 c-13 -13 -26 -3 -16 12 3 6 11 8 17 5 6 -4 6 -10 -1 -17z m-381 -27
c0 -13 -7 -20 -20 -20 -23 0 -25 5 -7 25 17 20 27 18 27 -5z m471 0 c5 0 9
-10 9 -21 0 -17 -3 -19 -14 -10 -8 6 -18 10 -24 9 -5 -2 -10 0 -11 5 -3 23 1
29 15 23 9 -3 20 -6 25 -6z m-151 -29 c7 -13 7 -22 0 -26 -5 -3 -11 -18 -11
-33 -2 -24 -2 -24 -6 -4 -2 12 -13 27 -24 32 -24 13 -25 37 -1 43 29 8 31 7
42 -12z m-500 -1 c13 -8 13 -10 -2 -10 -9 0 -20 5 -23 10 -8 13 5 13 25 0z
m135 -28 c0 -6 -4 -12 -9 -11 -5 0 -12 -5 -17 -13 -6 -10 -11 -10 -20 -1 -9 9
-9 16 1 28 15 18 45 16 45 -3z m435 -62 c6 0 10 12 10 26 0 21 3 24 21 19 12
-4 24 -2 28 3 4 7 12 7 20 3 11 -7 11 -12 -1 -30 -8 -11 -18 -18 -21 -14 -4 3
-7 -1 -7 -10 0 -9 -7 -17 -15 -17 -18 0 -19 -11 -2 -33 10 -14 18 -15 47 -7
30 8 33 7 17 -4 -15 -11 -15 -15 -3 -25 8 -6 18 -11 22 -10 26 4 36 -3 16 -12
-19 -7 -27 -5 -42 13 -24 30 -31 21 -21 -23 5 -21 4 -43 -1 -53 -6 -10 -5 -16
2 -16 5 0 10 5 10 10 0 6 7 10 15 10 7 0 19 8 24 18 10 16 10 16 11 0 0 -17
-36 -58 -52 -58 -4 0 -13 9 -20 20 -7 11 -17 20 -21 20 -5 0 -5 -9 -2 -20 4
-11 2 -20 -4 -20 -14 0 -14 47 -1 55 6 4 8 10 6 14 -3 4 -8 23 -11 42 -7 38
-16 50 -22 31 -3 -6 -9 -9 -15 -6 -6 4 -7 -10 -3 -40 6 -36 4 -46 -6 -46 -9 0
-15 14 -16 41 -1 32 4 47 23 64 30 28 30 35 -1 35 -27 0 -31 13 -18 60 7 25 7
24 15 -7 5 -18 13 -33 18 -33z m-1483 18 c-3 -8 -6 -5 -6 6 -1 11 2 17 5 13 3
-3 4 -12 1 -19z m953 -4 c0 -8 -4 -12 -10 -9 -5 3 -10 10 -10 16 0 5 5 9 10 9
6 0 10 -7 10 -16z m-790 -15 c0 -5 -4 -9 -10 -9 -5 0 -10 7 -10 16 0 8 5 12
10 9 6 -3 10 -10 10 -16z m-77 -24 c-4 -11 2 -15 19 -15 14 0 28 -3 31 -7 11
-10 57 -13 57 -2 0 5 6 9 14 9 8 0 16 7 20 15 3 8 10 15 15 15 10 0 9 -25 -1
-36 -4 -3 -4 -13 -1 -21 5 -12 1 -14 -15 -8 -16 5 -22 2 -22 -9 0 -9 9 -16 20
-16 11 0 20 -7 20 -15 0 -9 -9 -15 -22 -15 -19 0 -20 -2 -8 -10 13 -8 12 -11
-5 -24 -29 -22 -40 -14 -41 28 -1 52 -22 71 -59 54 -22 -10 -29 -10 -33 0 -2
6 -10 12 -17 12 -13 0 -25 21 -25 45 0 8 10 15 23 17 29 5 37 1 30 -17z m1337
-7 c0 -18 -2 -20 -9 -8 -6 8 -7 18 -5 22 9 14 14 9 14 -14z m-1406 -4 c4 -9 4
-19 2 -22 -10 -9 -36 8 -36 23 0 20 26 19 34 -1z m321 -13 c-9 -16 -25 -3 -18
15 4 10 9 12 15 6 6 -6 7 -15 3 -21z m1340 -18 c3 -14 4 -27 2 -30 -6 -5 -37
55 -37 70 0 18 28 -14 35 -40z m-220 27 c3 -5 1 -10 -4 -10 -6 0 -11 5 -11 10
0 6 2 10 4 10 3 0 8 -4 11 -10z m-97 -82 c-7 -39 -6 -53 3 -59 8 -4 10 -11 6
-15 -12 -13 -38 18 -31 39 4 12 2 17 -4 13 -6 -4 -16 3 -22 14 -9 16 -6 26 11
50 33 44 49 25 37 -42z m53 22 c5 0 9 -4 9 -10 0 -13 -27 -13 -35 0 -3 5 -2
22 2 37 l8 28 3 -27 c2 -16 8 -28 13 -28z m-1351 0 c0 -5 -4 -10 -10 -10 -5 0
-10 5 -10 10 0 6 5 10 10 10 6 0 10 -4 10 -10z m36 -36 c-4 -9 -9 -15 -11 -12
-3 3 -3 13 1 22 4 9 9 15 11 12 3 -3 3 -13 -1 -22z m197 -20 c4 -7 14 -11 21
-8 17 7 32 -14 19 -27 -5 -5 -24 -10 -43 -12 -30 -2 -37 1 -47 26 -7 16 -10
33 -7 38 7 12 47 0 57 -17z m927 -24 c-20 -12 -33 -1 -19 16 9 11 15 12 23 4
8 -8 7 -13 -4 -20z m204 14 c9 -3 16 -15 16 -26 0 -28 -34 -19 -38 10 -4 24
-2 25 22 16z m220 -31 c-13 -10 -14 -13 -3 -14 8 -1 3 -4 -11 -8 -19 -6 -24
-13 -22 -31 3 -29 11 -38 20 -25 4 6 15 11 25 13 12 2 17 -4 17 -22 0 -14 -4
-28 -10 -31 -5 -3 -10 0 -10 8 0 9 -9 12 -30 9 -27 -4 -30 -1 -30 21 0 14 -3
32 -6 41 -4 11 -1 16 10 16 9 0 16 6 16 14 0 18 44 48 49 33 2 -6 -4 -16 -15
-24z m-307 -8 c8 -21 -1 -28 -26 -20 -12 4 -18 12 -14 21 7 19 32 18 40 -1z
m-1071 -62 c4 -33 -7 -54 -23 -45 -10 6 -10 17 -2 46 11 41 21 41 25 -1z m-96
-53 c0 -5 -2 -10 -4 -10 -3 0 -8 5 -11 10 -3 6 -1 10 4 10 6 0 11 -4 11 -10z
m1520 -14 c0 -3 -4 -8 -10 -11 -5 -3 -10 -1 -10 4 0 6 5 11 10 11 6 0 10 -2
10 -4z m60 -36 c0 -3 -9 -6 -20 -6 -13 0 -20 7 -20 18 0 16 3 16 20 6 11 -7
20 -15 20 -18z m100 -12 c0 -5 -7 -8 -15 -8 -10 0 -15 10 -15 27 0 26 1 26 15
7 8 -10 15 -22 15 -26z m-40 11 c0 -5 -7 -9 -15 -9 -9 0 -12 6 -9 15 6 15 24
11 24 -6z m-1258 -44 c0 -5 -5 -11 -11 -13 -6 -2 -11 4 -11 13 0 9 5 15 11 13
6 -2 11 -8 11 -13z m1188 6 c0 -5 -6 -14 -13 -20 -11 -8 -18 -6 -32 9 -18 20
-17 20 13 20 18 0 32 -4 32 -9z m70 -11 c0 -5 -5 -10 -11 -10 -5 0 -7 5 -4 10
3 6 8 10 11 10 2 0 4 -4 4 -10z m40 -10 c0 -5 -5 -10 -11 -10 -5 0 -7 5 -4 10
3 6 8 10 11 10 2 0 4 -4 4 -10z m-90 -94 c0 -7 -8 -16 -17 -19 -10 -2 -27 -8
-38 -13 -18 -7 -18 -6 -6 9 7 9 20 17 27 17 8 0 14 5 14 10 0 6 5 10 10 10 6
0 10 -6 10 -14z m87 -26 c19 0 14 -42 -6 -48 -9 -3 -12 0 -8 11 4 10 -1 17
-14 20 -10 3 -19 11 -19 17 0 7 7 10 16 6 9 -3 22 -6 31 -6z m-57 -20 c0 -5
-2 -10 -4 -10 -3 0 -8 5 -11 10 -3 6 -1 10 4 10 6 0 11 -4 11 -10z m-80 -94
c0 -3 -4 -8 -10 -11 -5 -3 -10 -1 -10 4 0 6 5 11 10 11 6 0 10 -2 10 -4z
m-1838 -28 c-10 -10 -44 0 -37 12 3 5 14 6 26 3 12 -3 17 -9 11 -15z m-2 -28
c0 -5 -4 -10 -9 -10 -6 0 -13 5 -16 10 -3 6 1 10 9 10 9 0 16 -4 16 -10z
m-355 -70 c3 -5 1 -10 -4 -10 -6 0 -11 5 -11 10 0 6 2 10 4 10 3 0 8 -4 11
-10z m1985 -10 c0 -4 -12 -5 -26 -2 -17 3 -22 7 -13 12 13 9 39 2 39 -10z
m-2075 0 c3 -5 1 -10 -4 -10 -6 0 -11 5 -11 10 0 6 2 10 4 10 3 0 8 -4 11 -10z
m137 -52 c-9 -9 -15 -9 -24 0 -9 9 -7 12 12 12 19 0 21 -3 12 -12z m-48 -34
c25 -9 19 -24 -9 -24 -14 0 -28 -7 -31 -15 -10 -24 -34 -18 -34 9 0 18 7 26
23 29 12 2 25 5 29 6 3 0 13 -2 22 -5z m71 -4 c11 -17 -5 -32 -21 -19 -8 6
-14 15 -14 20 0 12 27 11 35 -1z m61 -62 c-11 -57 -56 -68 -56 -14 0 34 9 44
44 45 16 1 18 -4 12 -31z m-92 -19 c-3 -5 -16 -9 -30 -9 -29 0 -35 36 -6 43
18 4 45 -21 36 -34z m-96 -6 c6 -19 -35 -16 -42 3 -4 11 0 15 16 12 12 -2 23
-9 26 -15z m-38 -328 c20 -24 4 -45 -35 -45 -42 0 -59 25 -30 46 25 18 50 18
65 -1z m1580 -124 c0 -12 -20 -25 -27 -18 -7 7 6 27 18 27 5 0 9 -4 9 -9z
m415 -181 c-3 -5 -13 -10 -21 -10 -8 0 -14 5 -14 10 0 6 9 10 21 10 11 0 17
-4 14 -10z m-59 -25 c-1 -20 -6 -25 -29 -25 -35 0 -70 18 -62 31 4 5 10 7 15
4 5 -3 11 -1 15 5 3 5 19 10 35 10 23 0 28 -4 26 -25z m224 12 c0 -2 -9 -14
-19 -26 -14 -16 -21 -19 -27 -10 -4 7 1 18 11 26 18 12 35 17 35 10z m350 -27
c0 -21 -20 -25 -55 -10 -21 8 -21 8 25 23 26 9 30 7 30 -13z m100 -10 c0 -5
-4 -10 -10 -10 -5 0 -10 5 -10 10 0 6 5 10 10 10 6 0 10 -4 10 -10z m-1743
-60 c2 0 3 -4 3 -10 0 -5 -9 -10 -19 -10 -13 0 -19 -6 -18 -18 1 -18 2 -18 33
0 37 22 64 15 64 -16 0 -12 6 -28 12 -34 9 -9 9 -15 3 -20 -14 -10 -36 -62
-31 -71 3 -4 -1 -25 -9 -47 -12 -36 -16 -39 -54 -41 l-42 -3 1 128 c1 70 -1
135 -5 144 -6 15 -3 16 27 8 18 -6 34 -10 35 -10z m1128 -10 c-3 -5 -11 -10
-16 -10 -6 0 -7 5 -4 10 3 6 11 10 16 10 6 0 7 -4 4 -10z m565 -91 c0 -6 -4
-7 -10 -4 -5 3 -10 11 -10 16 0 6 5 7 10 4 6 -3 10 -11 10 -16z m-104 -34 c-7
-19 20 -20 56 -1 26 14 38 12 38 -6 0 -4 -7 -8 -15 -8 -8 0 -15 -4 -15 -8 0
-5 10 -8 22 -8 23 1 57 -46 38 -52 -13 -5 -13 -32 0 -32 6 0 13 0 18 0 4 -1
10 14 13 32 l6 33 2 -32 c1 -25 -6 -37 -31 -56 -51 -38 -62 -43 -56 -25 5 11
1 14 -17 10 -15 -2 -31 4 -46 19 -14 14 -20 16 -16 7 4 -11 1 -14 -11 -11 -36
9 -150 -85 -123 -102 11 -6 61 15 61 26 0 18 33 17 48 -2 11 -12 30 -21 50
-21 25 -1 31 -5 28 -17 -3 -9 -8 -28 -12 -43 -3 -16 -10 -28 -15 -28 -5 0 -6
6 -3 14 4 11 -4 14 -31 13 -24 -1 -34 -5 -31 -13 4 -10 -2 -10 -25 -2 -16 5
-29 13 -29 17 0 4 -10 8 -22 9 -13 1 -32 4 -43 6 -11 3 -22 5 -25 5 -3 1 -5
11 -4 24 4 52 17 85 42 103 43 31 83 78 77 91 -2 7 0 14 5 14 6 1 15 3 20 4 6
1 17 3 25 4 9 0 15 7 14 14 -2 20 1 37 7 37 3 0 4 -7 0 -15z m163 -281 c-5 -6
-4 -15 2 -21 8 -8 7 -13 0 -18 -7 -4 -10 -1 -9 7 2 7 -2 12 -8 11 -10 -2 -11
14 -5 50 0 4 7 2 15 -5 8 -8 11 -17 5 -24z m-2691 -86 c-2 -13 -7 -23 -13 -23
-5 0 -11 10 -13 23 -2 15 2 22 13 22 11 0 15 -7 13 -22z m1030 -80 c3 -27 1
-28 -41 -28 -55 0 -70 22 -29 44 41 22 66 16 70 -16z m-988 -69 c0 -5 -7 -9
-15 -9 -15 0 -20 12 -9 23 8 8 24 -1 24 -14z m275 -19 c-3 -5 -13 -10 -21 -10
-8 0 -12 5 -9 10 3 6 13 10 21 10 8 0 12 -4 9 -10z m-55 -10 c0 -5 -5 -10 -11
-10 -5 0 -7 5 -4 10 3 6 8 10 11 10 2 0 4 -4 4 -10z m-40 -30 c0 -5 -4 -10
-10 -10 -5 0 -10 5 -10 10 0 6 5 10 10 10 6 0 10 -4 10 -10z m-485 -40 c3 -6
-1 -7 -9 -4 -18 7 -21 14 -7 14 6 0 13 -4 16 -10z m540 0 c4 -6 1 -17 -5 -26
-10 -11 -16 -12 -26 -3 -11 9 -11 15 -3 25 14 17 25 18 34 4z m-583 -12 c-9
-9 -15 -9 -24 0 -9 9 -7 12 12 12 19 0 21 -3 12 -12z m458 2 c0 -5 -5 -10 -11
-10 -5 0 -7 5 -4 10 3 6 8 10 11 10 2 0 4 -4 4 -10z m2250 0 c0 -5 -4 -10 -10
-10 -5 0 -10 5 -10 10 0 6 5 10 10 10 6 0 10 -4 10 -10z m99 -5 c16 -8 31 -11
35 -8 3 4 6 -1 6 -11 0 -9 -4 -14 -10 -11 -5 3 -16 3 -22 -2 -7 -4 -26 -8 -43
-8 -46 -1 -76 38 -37 48 31 8 43 7 71 -8z m81 -18 c0 -5 -4 -5 -10 -2 -5 3
-10 14 -10 23 0 15 2 15 10 2 5 -8 10 -19 10 -23z m-220 -27 c0 -5 -4 -10 -10
-10 -5 0 -10 5 -10 10 0 6 5 10 10 10 6 0 10 -4 10 -10z m-2040 -10 c0 -5 -4
-10 -10 -10 -5 0 -10 5 -10 10 0 6 5 10 10 10 6 0 10 -4 10 -10z m2080 0 c0
-5 -7 -7 -15 -4 -8 4 -15 8 -15 10 0 2 7 4 15 4 8 0 15 -4 15 -10z m310 -20
c0 -5 -4 -10 -10 -10 -5 0 -10 5 -10 10 0 6 5 10 10 10 6 0 10 -4 10 -10z
m-870 -428 c0 -5 -7 -9 -15 -9 -8 0 -15 4 -15 9 0 4 7 8 15 8 8 0 15 -4 15 -8z
m-605 -42 c-3 -5 -11 -10 -16 -10 -6 0 -7 5 -4 10 3 6 11 10 16 10 6 0 7 -4 4
-10z m-615 -46 c0 -20 4 -25 16 -20 9 3 23 6 32 6 13 0 12 3 -4 15 -18 14 -18
14 9 15 16 0 27 -5 27 -14 0 -14 34 -30 58 -27 7 1 11 -4 10 -11 -2 -7 5 -12
14 -12 9 1 14 -4 12 -11 -3 -7 4 -15 16 -18 17 -4 20 -10 14 -31 -4 -17 -2
-26 6 -26 6 0 8 5 4 11 -4 7 1 9 12 7 18 -4 21 -15 13 -48 -2 -8 1 -14 8 -15
17 0 29 -15 12 -16 -8 0 -6 -4 6 -9 17 -8 16 -9 -9 -7 -23 2 -29 -3 -32 -20
-3 -15 1 -23 10 -23 8 0 17 -7 20 -16 4 -11 2 -15 -8 -11 -37 14 -89 19 -82 8
10 -16 -10 -14 -28 4 -8 8 -19 15 -25 15 -5 0 -13 5 -17 11 -4 7 0 9 14 5 11
-4 23 -2 27 4 7 11 -3 13 -51 10 -18 -1 -38 6 -48 15 -9 9 -16 12 -16 7 0 -17
-50 -20 -66 -5 -8 8 -14 19 -14 24 0 5 -6 9 -14 9 -7 0 -16 9 -19 20 -3 11
-12 20 -21 20 -22 0 -20 20 2 21 14 0 14 2 -3 8 -11 5 -25 6 -31 4 -7 -2 -15
1 -19 7 -4 7 2 14 14 17 12 3 21 10 21 17 0 15 49 60 57 53 3 -4 17 3 31 13
33 27 42 25 42 -6z m917 -20 c-3 -3 -12 -4 -19 -1 -8 3 -5 6 6 6 11 1 17 -2
13 -5z m-1082 -24 c-3 -5 -11 -10 -16 -10 -6 0 -7 5 -4 10 3 6 11 10 16 10 6
0 7 -4 4 -10z m2002 -48 c-6 -15 -19 -41 -28 -58 -28 -52 -35 -66 -69 -137
-35 -72 -60 -102 -60 -73 0 13 -5 16 -19 11 -17 -5 -19 -1 -17 42 3 52 13 84
30 95 7 5 5 8 -6 8 -12 0 -15 6 -10 23 3 12 8 24 11 27 4 3 12 17 18 33 13 29
43 37 43 12 0 -24 18 -17 22 8 2 16 10 22 28 22 15 0 28 7 33 19 6 15 10 16
22 6 11 -9 12 -17 2 -38z m-2707 3 c7 -9 8 -15 2 -15 -5 0 -12 7 -16 15 -3 8
-4 15 -2 15 2 0 9 -7 16 -15z m-50 1 c0 -2 -9 -6 -20 -9 -11 -3 -20 -1 -20 4
0 5 9 9 20 9 11 0 20 -2 20 -4z m2600 -30 c0 -3 -4 -8 -10 -11 -5 -3 -10 -1
-10 4 0 6 5 11 10 11 6 0 10 -2 10 -4z m-1015 -86 c3 -5 1 -10 -4 -10 -6 0
-11 5 -11 10 0 6 2 10 4 10 3 0 8 -4 11 -10z m-585 -36 c0 -12 -31 -35 -41
-32 -8 3 -6 10 5 21 17 17 36 23 36 11z m-283 -66 c-3 -7 -5 -2 -5 12 0 14 2
19 5 13 2 -7 2 -19 0 -25z m-797 1 c0 -5 -4 -9 -10 -9 -5 0 -10 7 -10 16 0 8
5 12 10 9 6 -3 10 -10 10 -16z m90 1 c0 -5 -4 -10 -10 -10 -5 0 -10 5 -10 10
0 6 5 10 10 10 6 0 10 -4 10 -10z m345 -30 c3 -5 1 -10 -4 -10 -6 0 -11 5 -11
10 0 6 2 10 4 10 3 0 8 -4 11 -10z m350 0 c3 -5 1 -10 -4 -10 -6 0 -11 5 -11
10 0 6 2 10 4 10 3 0 8 -4 11 -10z m-695 -30 c0 -5 -4 -10 -10 -10 -5 0 -10 5
-10 10 0 6 5 10 10 10 6 0 10 -4 10 -10z m68 -1 c-2 -6 -8 -10 -13 -10 -5 0
-11 4 -13 10 -2 6 4 11 13 11 9 0 15 -5 13 -11z m100 4 c-10 -2 -26 -2 -35 0
-10 3 -2 5 17 5 19 0 27 -2 18 -5z m2322 3 c0 -2 -7 -6 -15 -10 -8 -3 -15 -1
-15 4 0 6 7 10 15 10 8 0 15 -2 15 -4z m-2106 -15 c3 -5 -1 -11 -9 -14 -9 -4
-12 -1 -8 9 6 16 10 17 17 5z m323 -13 c-3 -8 -6 -5 -6 6 -1 11 2 17 5 13 3
-3 4 -12 1 -19z m-827 2 c0 -5 -4 -10 -10 -10 -5 0 -10 5 -10 10 0 6 5 10 10
10 6 0 10 -4 10 -10z m632 -12 c-9 -9 -15 -9 -24 0 -9 9 -7 12 12 12 19 0 21
-3 12 -12z m-625 -24 c-3 -3 -12 -4 -19 -1 -8 3 -5 6 6 6 11 1 17 -2 13 -5z"/>
<path d="M2450 3546 c0 -8 -8 -16 -17 -19 -17 -4 -17 -4 1 -12 12 -5 21 -3 27
6 12 19 11 39 -1 39 -5 0 -10 -6 -10 -14z"/>
<path d="M2395 3490 c3 -5 8 -10 11 -10 2 0 4 5 4 10 0 6 -5 10 -11 10 -5 0
-7 -4 -4 -10z"/>
<path d="M2460 3401 c0 -5 5 -13 10 -16 6 -3 10 -2 10 4 0 5 -4 13 -10 16 -5
3 -10 2 -10 -4z"/>
<path d="M1371 1614 c0 -11 3 -14 6 -6 3 7 2 16 -1 19 -3 4 -6 -2 -5 -13z"/>
<path d="M1036 395 c4 -8 11 -15 16 -15 6 0 5 6 -2 15 -7 8 -14 15 -16 15 -2
0 -1 -7 2 -15z"/>
<path d="M998 383 c6 -2 18 -2 25 0 6 3 1 5 -13 5 -14 0 -19 -2 -12 -5z"/>
<path d="M1236 362 c-3 -6 -1 -14 5 -17 15 -10 25 3 12 16 -7 7 -13 7 -17 1z"/>
<path d="M2760 129 c0 -7 3 -9 7 -5 4 3 12 -4 19 -16 11 -21 13 -21 20 -5 8
21 7 22 -23 31 -15 5 -23 3 -23 -5z"/>
<path d="M3158 3989 c-6 -4 -5 -9 3 -12 8 -3 -2 -6 -21 -8 l-35 -2 35 -7 c34
-7 34 -7 6 -9 -16 0 -27 -4 -24 -7 4 -3 47 -5 97 -5 58 1 93 -3 97 -11 5 -8 2
-9 -9 -5 -10 3 -17 2 -17 -3 0 -6 30 -10 66 -10 58 0 65 2 54 15 -11 13 -4 15
54 15 41 0 65 -4 61 -10 -3 -5 -20 -7 -38 -4 -24 4 -28 3 -17 -5 8 -6 67 -12
130 -13 l115 -2 -80 -6 -80 -6 80 -3 c52 -2 73 -5 60 -10 -15 -6 -9 -9 28 -12
40 -4 47 -1 47 13 0 11 8 18 20 18 12 0 20 -7 20 -18 0 -15 9 -17 78 -14 116
4 128 9 27 11 -55 1 -85 5 -76 10 11 7 11 9 0 14 -8 3 -4 6 9 6 13 1 20 -3 17
-9 -4 -6 21 -10 67 -10 51 0 68 3 58 10 -10 6 -11 10 -2 10 6 0 12 5 12 11 0
5 -4 8 -9 4 -5 -3 -12 -1 -16 5 -3 5 2 10 12 10 17 1 17 1 1 11 -22 12 -23 29
-3 29 8 0 15 5 15 10 0 11 -824 10 -842 -1z m63 -18 c-11 -7 -6 -11 20 -14 25
-3 22 -4 -16 -5 -27 0 -44 2 -36 5 11 5 11 7 0 14 -10 6 -5 9 16 9 22 0 26 -3
16 -9z m56 3 c-3 -3 -12 -4 -19 -1 -8 3 -5 6 6 6 11 1 17 -2 13 -5z m206 -1
c-7 -2 -19 -2 -25 0 -7 3 -2 5 12 5 14 0 19 -2 13 -5z m304 1 c-3 -3 -12 -4
-19 -1 -8 3 -5 6 6 6 11 1 17 -2 13 -5z m-449 -21 c-10 -2 -28 -2 -40 0 -13 2
-5 4 17 4 22 1 32 -1 23 -4z m105 0 c-7 -2 -19 -2 -25 0 -7 3 -2 5 12 5 14 0
19 -2 13 -5z m185 0 c-10 -2 -28 -2 -40 0 -13 2 -5 4 17 4 22 1 32 -1 23 -4z
m199 1 c-3 -3 -12 -4 -19 -1 -8 3 -5 6 6 6 11 1 17 -2 13 -5z m60 0 c-3 -3
-12 -4 -19 -1 -8 3 -5 6 6 6 11 1 17 -2 13 -5z m-507 -24 c0 -5 -11 -10 -25
-10 -14 0 -25 5 -25 10 0 6 11 10 25 10 14 0 25 -4 25 -10z m279 6 c-7 -8
-108 -10 -115 -3 -4 4 21 7 56 7 35 0 61 -2 59 -4z m121 -6 c0 -5 -4 -10 -9
-10 -6 0 -13 5 -16 10 -3 6 1 10 9 10 9 0 16 -4 16 -10z m120 6 c0 -9 -40 -13
-46 -5 -3 5 6 9 20 9 14 0 26 -2 26 -4z m-147 -53 c-7 -2 -19 -2 -25 0 -7 3
-2 5 12 5 14 0 19 -2 13 -5z"/>
<path d="M2240 3955 c0 -8 4 -15 10 -15 5 0 7 7 4 15 -4 8 -8 15 -10 15 -2 0
-4 -7 -4 -15z"/>
<path d="M3212 3924 c3 -3 21 -7 39 -9 25 -3 30 -2 19 5 -16 10 -67 14 -58 4z"/>
<path d="M3435 3920 c3 -5 8 -10 11 -10 2 0 4 5 4 10 0 6 -5 10 -11 10 -5 0
-7 -4 -4 -10z"/>
<path d="M3333 3893 c20 -2 54 -2 75 0 20 2 3 4 -38 4 -41 0 -58 -2 -37 -4z"/>
<path d="M3488 3893 c12 -2 30 -2 40 0 9 3 -1 5 -23 4 -22 0 -30 -2 -17 -4z"/>
<path d="M3253 3873 c9 -2 23 -2 30 0 6 3 -1 5 -18 5 -16 0 -22 -2 -12 -5z"/>
<path d="M3308 3873 c6 -2 18 -2 25 0 6 3 1 5 -13 5 -14 0 -19 -2 -12 -5z"/>
<path d="M3403 3873 c9 -2 23 -2 30 0 6 3 -1 5 -18 5 -16 0 -22 -2 -12 -5z"/>
<path d="M3473 3873 c9 -2 25 -2 35 0 9 3 1 5 -18 5 -19 0 -27 -2 -17 -5z"/>
<path d="M3538 3873 c7 -3 16 -2 19 1 4 3 -2 6 -13 5 -11 0 -14 -3 -6 -6z"/>
<path d="M3576 3865 c4 -8 16 -14 28 -14 20 1 20 2 1 7 l-20 5 20 8 c17 7 17
8 -7 8 -20 1 -26 -3 -22 -14z"/>
<path d="M3648 3873 c7 -3 16 -2 19 1 4 3 -2 6 -13 5 -11 0 -14 -3 -6 -6z"/>
<path d="M3631 3846 c-8 -10 -9 -16 -1 -21 5 -3 10 1 10 9 0 19 36 22 42 4 3
-7 7 -6 11 5 5 14 1 17 -22 17 -16 0 -34 -6 -40 -14z"/>
<path d="M3718 3853 c7 -3 16 -2 19 1 4 3 -2 6 -13 5 -11 0 -14 -3 -6 -6z"/>
<path d="M3830 3845 c0 -8 5 -15 11 -15 5 0 8 4 4 9 -3 5 3 12 12 14 14 4 13
5 -4 6 -14 1 -23 -5 -23 -14z"/>
<path d="M3968 3853 c6 -2 18 -2 25 0 6 3 1 5 -13 5 -14 0 -19 -2 -12 -5z"/>
<path d="M3396 3841 c-4 -5 -2 -12 3 -15 5 -4 12 -2 15 3 4 5 2 12 -3 15 -5 4
-12 2 -15 -3z"/>
<path d="M3740 3831 l25 -8 -25 -5 c-19 -4 -17 -6 13 -7 27 -1 37 3 37 14 0
11 -10 15 -37 14 -33 -1 -35 -2 -13 -8z"/>
<path d="M3884 3821 c19 -21 19 -21 0 -22 -13 0 -15 -2 -5 -6 10 -4 8 -9 -10
-20 -14 -8 -16 -12 -6 -9 10 3 25 6 33 6 25 0 14 64 -11 69 -20 3 -20 3 -1
-18z"/>
<path d="M3930 3831 c22 -12 78 -24 61 -13 -11 8 -11 10 0 15 8 3 -6 6 -31 6
-29 0 -40 -3 -30 -8z"/>
<path d="M2407 3813 c-13 -12 -7 -23 13 -23 13 0 18 5 14 15 -7 16 -17 19 -27
8z"/>
<path d="M3568 3793 c7 -3 16 -2 19 1 4 3 -2 6 -13 5 -11 0 -14 -3 -6 -6z"/>
<path d="M3728 3793 c7 -3 16 -2 19 1 4 3 -2 6 -13 5 -11 0 -14 -3 -6 -6z"/>
<path d="M1799 3760 c-5 -40 -4 -80 1 -80 12 0 21 63 10 74 -5 5 -10 8 -11 6z"/>
<path d="M3978 3733 c7 -3 16 -2 19 1 4 3 -2 6 -13 5 -11 0 -14 -3 -6 -6z"/>
<path d="M1830 3704 c0 -5 7 -18 15 -28 12 -16 15 -17 15 -4 0 8 -7 21 -15 28
-8 7 -15 9 -15 4z"/>
<path d="M1960 3520 c0 -5 5 -10 10 -10 6 0 10 -10 10 -22 1 -21 2 -21 11 -5
8 13 7 22 -1 33 -14 16 -30 19 -30 4z"/>
<path d="M1700 3431 c5 -10 16 -23 24 -30 13 -11 15 -9 13 16 -1 21 -7 28 -24
29 -18 2 -21 -1 -13 -15z"/>
<path d="M2880 3425 c0 -8 5 -15 10 -15 6 0 10 7 10 15 0 8 -4 15 -10 15 -5 0
-10 -7 -10 -15z"/>
<path d="M1547 3401 c2 -2 -2 -10 -8 -17 -14 -17 -3 -35 17 -27 9 3 20 0 24
-8 5 -7 12 -11 15 -7 3 3 -7 19 -22 34 -15 16 -27 27 -26 25z"/>
<path d="M2906 3392 c-3 -5 1 -13 9 -16 14 -5 14 -9 0 -35 -17 -34 -6 -48 24
-29 15 9 19 19 14 38 -6 26 -23 51 -23 35 0 -6 -4 -4 -9 4 -5 8 -11 9 -15 3z"/>
<path d="M1740 3363 c0 -13 12 -17 38 -14 6 1 12 -4 12 -11 0 -9 3 -9 12 0 9
9 9 15 0 25 -17 16 -62 16 -62 0z"/>
<path d="M2864 3354 c3 -8 6 -21 6 -27 0 -7 4 -6 10 3 14 21 12 27 -6 34 -12
5 -15 2 -10 -10z"/>
<path d="M1080 3320 c-9 -6 -10 -10 -3 -10 6 0 15 5 18 10 8 12 4 12 -15 0z"/>
<path d="M3042 3218 c-7 -7 -12 -17 -12 -22 0 -6 4 -5 9 3 11 18 31 5 31 -20
0 -10 7 -19 15 -19 13 0 13 4 2 32 -15 36 -27 44 -45 26z"/>
<path d="M1460 3084 c0 -1 6 -7 14 -13 10 -8 16 -8 25 3 10 11 7 14 -14 12
-14 0 -25 -2 -25 -2z"/>
<path d="M1095 2910 c-3 -5 1 -10 9 -10 9 0 16 5 16 10 0 6 -4 10 -9 10 -6 0
-13 -4 -16 -10z"/>
<path d="M1060 2852 c0 -10 41 -24 49 -17 6 7 0 11 -26 19 -13 4 -23 3 -23 -2z"/>
<path d="M2763 2720 c3 -39 16 -39 15 0 -1 17 -5 30 -9 30 -5 0 -7 -13 -6 -30z"/>
<path d="M2728 2723 c7 -3 16 -2 19 1 4 3 -2 6 -13 5 -11 0 -14 -3 -6 -6z"/>
<path d="M3225 2690 c-4 -6 0 -21 8 -34 14 -20 13 -24 -1 -35 -10 -6 -11 -9
-4 -6 7 4 12 0 12 -9 0 -9 -7 -16 -15 -16 -8 0 -15 -5 -15 -11 0 -5 5 -7 10
-4 17 11 32 -5 19 -21 -9 -11 -7 -14 10 -14 12 0 21 6 21 15 0 8 5 15 10 15 7
0 7 -7 0 -21 -6 -11 -12 -38 -12 -60 0 -21 -4 -42 -9 -45 -5 -3 -9 0 -9 5 0 6
-5 11 -11 11 -8 0 -8 -5 1 -15 22 -26 36 -17 47 30 6 27 7 45 1 45 -5 0 -2 7
6 16 20 20 20 43 1 49 -8 3 -22 7 -31 10 -11 4 -13 9 -6 18 14 18 11 49 -9 70
-11 13 -19 15 -24 7z"/>
<path d="M2970 2680 c0 -5 7 -10 16 -10 8 0 12 5 9 10 -3 6 -10 10 -16 10 -5
0 -9 -4 -9 -10z"/>
<path d="M2695 2669 c-4 -6 -5 -12 -2 -15 2 -3 7 2 10 11 7 17 1 20 -8 4z"/>
<path d="M2370 2648 c-30 -32 -24 -40 15 -20 38 19 43 27 20 36 -8 3 -24 -4
-35 -16z"/>
<path d="M3020 2646 c0 -2 7 -7 16 -10 8 -3 12 -2 9 4 -6 10 -25 14 -25 6z"/>
<path d="M3280 2616 c0 -2 7 -6 15 -10 8 -3 15 -1 15 4 0 6 -7 10 -15 10 -8 0
-15 -2 -15 -4z"/>
<path d="M2311 2598 c-1 -13 -9 -18 -28 -18 l-28 -1 30 -13 c28 -12 29 -13 10
-25 -19 -11 -19 -12 -1 -9 23 4 36 36 25 63 -6 17 -8 17 -8 3z"/>
<path d="M2790 2599 c0 -5 5 -7 10 -4 6 3 10 8 10 11 0 2 -4 4 -10 4 -5 0 -10
-5 -10 -11z"/>
<path d="M2826 2554 c-13 -33 -6 -49 9 -20 18 33 18 36 6 36 -5 0 -12 -7 -15
-16z"/>
<path d="M2242 2434 c-14 -16 -5 -18 17 -5 7 5 9 11 5 14 -5 3 -15 -1 -22 -9z"/>
<path d="M615 2430 c3 -5 13 -10 21 -10 8 0 14 5 14 10 0 6 -9 10 -21 10 -11
0 -17 -4 -14 -10z"/>
<path d="M550 2360 c0 -5 5 -10 11 -10 5 0 7 5 4 10 -3 6 -8 10 -11 10 -2 0
-4 -4 -4 -10z"/>
<path d="M2847 2321 c-3 -12 -1 -21 3 -21 14 0 19 15 11 29 -6 9 -10 7 -14 -8z"/>
<path d="M2075 2310 c3 -5 8 -10 11 -10 2 0 4 5 4 10 0 6 -5 10 -11 10 -5 0
-7 -4 -4 -10z"/>
<path d="M2096 2268 c3 -5 10 -6 15 -3 13 9 11 12 -6 12 -8 0 -12 -4 -9 -9z"/>
<path d="M385 2130 c3 -5 8 -10 11 -10 2 0 4 5 4 10 0 6 -5 10 -11 10 -5 0 -7
-4 -4 -10z"/>
<path d="M2796 1841 c-4 -5 3 -7 14 -4 23 6 26 13 6 13 -8 0 -17 -4 -20 -9z"/>
<path d="M2190 1775 c0 -11 -7 -13 -29 -9 -18 4 -32 1 -36 -7 -5 -8 -4 -10 3
-5 17 10 32 -2 25 -20 -4 -11 -9 -12 -19 -3 -11 9 -15 7 -20 -5 -4 -9 -21 -23
-38 -31 -30 -13 -30 -14 -9 -20 13 -4 20 -11 17 -17 -3 -5 -12 -4 -20 3 -8 6
-14 10 -15 8 -8 -43 -6 -59 7 -59 17 0 54 35 54 51 0 15 31 38 51 39 9 0 19 6
22 14 4 9 14 12 26 9 26 -7 93 16 85 28 -3 6 -19 7 -36 4 -24 -6 -30 -3 -35
14 -6 24 -33 29 -33 6z"/>
<path d="M378 1733 c7 -3 16 -2 19 1 4 3 -2 6 -13 5 -11 0 -14 -3 -6 -6z"/>
<path d="M2075 1720 c-3 -5 1 -10 9 -10 9 0 16 5 16 10 0 6 -4 10 -9 10 -6 0
-13 -4 -16 -10z"/>
<path d="M1990 1580 c0 -5 5 -10 11 -10 6 0 9 -9 6 -20 -3 -11 -2 -22 3 -25
10 -6 17 24 12 48 -4 18 -32 24 -32 7z"/>
<path d="M1980 1500 c0 -5 5 -10 10 -10 6 0 10 5 10 10 0 6 -4 10 -10 10 -5 0
-10 -4 -10 -10z"/>
<path d="M1990 1459 c-11 -8 -12 -12 -2 -16 6 -2 12 -11 12 -19 0 -16 26 -19
35 -4 3 6 2 10 -3 10 -6 0 -9 7 -8 16 1 21 -14 27 -34 13z"/>
<path d="M3941 1253 c0 -10 4 -36 9 -58 l8 -40 -1 53 c0 29 -4 55 -9 58 -4 3
-8 -3 -7 -13z"/>
<path d="M2048 1213 c7 -3 16 -2 19 1 4 3 -2 6 -13 5 -11 0 -14 -3 -6 -6z"/>
<path d="M2710 1160 c-14 -10 -21 -22 -17 -26 4 -4 17 2 29 14 28 28 20 36
-12 12z"/>
<path d="M3958 1144 c-5 -4 -8 -16 -8 -28 0 -14 3 -17 11 -9 6 6 9 19 7 28 -1
9 -6 13 -10 9z"/>
<path d="M2644 1119 c-3 -6 -15 -8 -26 -6 -19 5 -19 5 -2 -14 21 -23 40 -24
48 -3 12 31 -3 50 -20 23z"/>
<path d="M51 1104 c0 -11 3 -14 6 -6 3 7 2 16 -1 19 -3 4 -6 -2 -5 -13z"/>
<path d="M80 1070 c0 -5 5 -10 10 -10 6 0 10 5 10 10 0 6 -4 10 -10 10 -5 0
-10 -4 -10 -10z"/>
<path d="M2007 1074 c-4 -4 -7 -14 -7 -23 0 -11 3 -12 11 -4 6 6 10 16 7 23
-2 6 -7 8 -11 4z"/>
<path d="M115 890 c3 -5 8 -10 11 -10 2 0 4 5 4 10 0 6 -5 10 -11 10 -5 0 -7
-4 -4 -10z"/>
<path d="M1060 821 c0 -12 63 -61 78 -61 7 0 12 9 12 20 0 13 -7 20 -18 20
-10 0 -27 7 -38 15 -22 17 -34 19 -34 6z"/>
<path d="M153 715 c-8 -9 -9 -16 -3 -20 6 -3 13 1 16 10 9 21 2 26 -13 10z"/>
<path d="M3030 685 c0 -8 2 -15 4 -15 2 0 6 7 10 15 3 8 1 15 -4 15 -6 0 -10
-7 -10 -15z"/>
<path d="M732 473 c-18 -8 -31 -17 -29 -19 4 -5 67 25 67 32 0 6 -1 5 -38 -13z"/>
<path d="M3067 465 c-4 -8 -3 -16 1 -19 13 -8 35 11 28 23 -10 15 -23 14 -29
-4z"/>
<path d="M3128 459 c-10 -5 -18 -16 -18 -24 0 -8 8 -19 18 -24 15 -9 15 -12 2
-21 -13 -8 -13 -10 1 -10 8 0 24 -6 34 -14 17 -12 17 -16 6 -30 -12 -14 -12
-16 1 -11 8 3 22 -3 31 -13 16 -18 16 -19 -18 -20 -20 -1 -40 -4 -45 -7 -17
-11 -11 -25 11 -25 11 0 17 5 14 10 -4 6 8 10 29 10 28 0 36 4 36 18 0 11 5 7
15 -12 11 -21 12 -31 4 -36 -16 -10 5 -22 34 -20 50 4 66 0 61 -15 -4 -8 -14
-15 -23 -15 -14 0 -14 -2 -1 -10 8 -5 10 -10 4 -10 -7 0 -14 -7 -18 -15 -4
-13 -2 -13 14 -5 10 5 25 10 32 9 7 0 3 -4 -9 -9 -13 -5 -23 -14 -23 -20 0 -5
-7 -10 -15 -10 -8 0 -15 -5 -15 -11 0 -5 4 -8 9 -4 5 3 12 1 16 -4 3 -5 -3
-15 -12 -21 -15 -9 -12 -10 15 -5 18 4 32 2 32 -3 0 -5 -16 -13 -35 -16 -47
-9 -44 -21 5 -22 22 -1 52 -11 69 -23 35 -25 105 -28 127 -6 9 8 13 19 10 24
-3 5 3 11 15 14 15 4 17 2 10 -6 -6 -8 -5 -18 4 -31 13 -17 15 -17 30 -2 18
18 55 22 55 5 0 -6 -9 -8 -20 -4 -11 4 -20 2 -20 -4 0 -14 57 -14 66 0 4 8 9
8 17 0 7 -7 67 -11 164 -11 l154 0 -3 107 -3 107 -35 23 c-19 12 -39 26 -45
31 -17 14 -138 69 -180 82 -22 7 -49 16 -60 21 -30 11 -77 18 -210 31 -66 6
-122 14 -125 18 -5 7 -38 14 -115 26 -22 3 -44 10 -49 15 -13 12 -26 11 -48
-2z m542 -399 c-20 -13 -40 -13 -40 0 0 6 12 10 28 10 21 0 24 -2 12 -10z
m-190 -46 c0 -2 -7 -4 -15 -4 -8 0 -15 4 -15 10 0 5 7 7 15 4 8 -4 15 -8 15
-10z"/>
<path d="M648 433 c7 -3 16 -2 19 1 4 3 -2 6 -13 5 -11 0 -14 -3 -6 -6z"/>
<path d="M420 369 c0 -5 5 -7 10 -4 6 3 10 8 10 11 0 2 -4 4 -10 4 -5 0 -10
-5 -10 -11z"/>
<path d="M1841 334 c0 -11 3 -14 6 -6 3 7 2 16 -1 19 -3 4 -6 -2 -5 -13z"/>
<path d="M3121 334 c0 -11 3 -14 6 -6 3 7 2 16 -1 19 -3 4 -6 -2 -5 -13z"/>
<path d="M1842 270 c0 -14 2 -19 5 -12 2 6 2 18 0 25 -3 6 -5 1 -5 -13z"/>
<path d="M3208 263 c7 -3 16 -2 19 1 4 3 -2 6 -13 5 -11 0 -14 -3 -6 -6z"/>
<path d="M3270 210 c0 -5 4 -10 9 -10 5 0 12 -8 14 -17 3 -11 5 -7 6 10 1 18
-4 27 -14 27 -8 0 -15 -4 -15 -10z"/>
<path d="M1805 170 c4 -6 11 -8 16 -5 14 9 11 15 -7 15 -8 0 -12 -5 -9 -10z"/>
<path d="M2885 99 c-11 -17 1 -21 15 -4 8 9 8 15 2 15 -6 0 -14 -5 -17 -11z"/>
<path d="M942 58 c5 -15 28 -23 28 -10 0 5 -7 13 -16 16 -10 4 -14 1 -12 -6z"/>
<path d="M350 40 c21 -7 22 -8 5 -9 -15 -1 -17 -3 -6 -10 11 -7 11 -9 0 -14
-9 -3 -7 -6 6 -6 12 -1 25 9 32 24 11 24 10 25 -25 24 -33 -1 -35 -2 -12 -9z"/>
<path d="M3332 18 c3 -7 20 -14 39 -16 l34 -2 -25 15 c-31 18 -53 19 -48 3z"/>
<path d="M740 16 c0 -2 9 -6 20 -9 11 -3 20 -1 20 4 0 5 -9 9 -20 9 -11 0 -20
-2 -20 -4z"/>
</g>
</svg>
